<svg width="142" height="26" viewBox="0 0 142 26" fill="none" xmlns="http://www.w3.org/2000/svg">
<path d="M13.5077 20.5563L19.3226 24.2484C20.0725 24.7214 20.9956 24.0176 20.7763 23.1523L19.0919 16.5297C19.0463 16.3461 19.0535 16.1534 19.1127 15.9738C19.1719 15.7942 19.2807 15.6349 19.4264 15.5144L24.6414 11.1647C25.3222 10.5994 24.976 9.45717 24.0876 9.39948L17.2804 8.96105C17.0947 8.95024 16.9161 8.88557 16.7666 8.77492C16.617 8.66428 16.5029 8.51246 16.4382 8.33802L13.8999 1.94619C13.8327 1.76147 13.7103 1.60191 13.5493 1.48916C13.3883 1.3764 13.1966 1.31592 13 1.31592C12.8034 1.31592 12.6117 1.3764 12.4507 1.48916C12.2897 1.60191 12.1673 1.76147 12.1001 1.94619L9.56179 8.33802C9.4971 8.51246 9.383 8.66428 9.23343 8.77492C9.08385 8.88557 8.90529 8.95024 8.71955 8.96105L1.91237 9.39948C1.02397 9.45717 0.677844 10.5994 1.35856 11.1647L6.57356 15.5144C6.71932 15.6349 6.82806 15.7942 6.88726 15.9738C6.94645 16.1534 6.9537 16.3461 6.90815 16.5297L5.35057 22.6677C5.08521 23.7061 6.19282 24.5483 7.08121 23.983L12.4923 20.5563C12.6441 20.4598 12.8202 20.4086 13 20.4086C13.1798 20.4086 13.3559 20.4598 13.5077 20.5563Z" fill="#F8D57E" stroke="#F8D57E" stroke-width="2" stroke-linecap="round" stroke-linejoin="round"/>
<path d="M42.5077 20.5563L48.3226 24.2484C49.0725 24.7214 49.9956 24.0176 49.7763 23.1523L48.0919 16.5297C48.0463 16.3461 48.0535 16.1534 48.1127 15.9738C48.1719 15.7942 48.2807 15.6349 48.4264 15.5144L53.6414 11.1647C54.3222 10.5994 53.976 9.45717 53.0876 9.39948L46.2804 8.96105C46.0947 8.95024 45.9161 8.88557 45.7666 8.77492C45.617 8.66428 45.5029 8.51246 45.4382 8.33802L42.8999 1.94619C42.8327 1.76147 42.7103 1.60191 42.5493 1.48916C42.3883 1.3764 42.1966 1.31592 42 1.31592C41.8034 1.31592 41.6117 1.3764 41.4507 1.48916C41.2897 1.60191 41.1673 1.76147 41.1001 1.94619L38.5618 8.33802C38.4971 8.51246 38.383 8.66428 38.2334 8.77492C38.0839 8.88557 37.9053 8.95024 37.7196 8.96105L30.9124 9.39948C30.024 9.45717 29.6778 10.5994 30.3586 11.1647L35.5736 15.5144C35.7193 15.6349 35.8281 15.7942 35.8873 15.9738C35.9465 16.1534 35.9537 16.3461 35.9081 16.5297L34.3506 22.6677C34.0852 23.7061 35.1928 24.5483 36.0812 23.983L41.4923 20.5563C41.6441 20.4598 41.8202 20.4086 42 20.4086C42.1798 20.4086 42.3559 20.4598 42.5077 20.5563Z" fill="#F8D57E" stroke="#F8D57E" stroke-width="2" stroke-linecap="round" stroke-linejoin="round"/>
<path d="M71.5077 20.5563L77.3226 24.2484C78.0725 24.7214 78.9956 24.0176 78.7763 23.1523L77.0919 16.5297C77.0463 16.3461 77.0535 16.1534 77.1127 15.9738C77.1719 15.7942 77.2807 15.6349 77.4264 15.5144L82.6414 11.1647C83.3222 10.5994 82.976 9.45717 82.0876 9.39948L75.2804 8.96105C75.0947 8.95024 74.9161 8.88557 74.7666 8.77492C74.617 8.66428 74.5029 8.51246 74.4382 8.33802L71.8999 1.94619C71.8327 1.76147 71.7103 1.60191 71.5493 1.48916C71.3883 1.3764 71.1966 1.31592 71 1.31592C70.8034 1.31592 70.6117 1.3764 70.4507 1.48916C70.2897 1.60191 70.1673 1.76147 70.1001 1.94619L67.5618 8.33802C67.4971 8.51246 67.383 8.66428 67.2334 8.77492C67.0839 8.88557 66.9053 8.95024 66.7196 8.96105L59.9124 9.39948C59.024 9.45717 58.6778 10.5994 59.3586 11.1647L64.5736 15.5144C64.7193 15.6349 64.8281 15.7942 64.8873 15.9738C64.9465 16.1534 64.9537 16.3461 64.9081 16.5297L63.3506 22.6677C63.0852 23.7061 64.1928 24.5483 65.0812 23.983L70.4923 20.5563C70.6441 20.4598 70.8202 20.4086 71 20.4086C71.1798 20.4086 71.3559 20.4598 71.5077 20.5563Z" fill="#F8D57E" stroke="#F8D57E" stroke-width="2" stroke-linecap="round" stroke-linejoin="round"/>
<path d="M100.508 20.5563L106.323 24.2484C107.073 24.7214 107.996 24.0176 107.776 23.1523L106.092 16.5297C106.046 16.3461 106.054 16.1534 106.113 15.9738C106.172 15.7942 106.281 15.6349 106.426 15.5144L111.641 11.1647C112.322 10.5994 111.976 9.45717 111.088 9.39948L104.28 8.96105C104.095 8.95024 103.916 8.88557 103.767 8.77492C103.617 8.66428 103.503 8.51246 103.438 8.33802L100.9 1.94619C100.833 1.76147 100.71 1.60191 100.549 1.48916C100.388 1.3764 100.197 1.31592 100 1.31592C99.8034 1.31592 99.6117 1.3764 99.4507 1.48916C99.2897 1.60191 99.1673 1.76147 99.1001 1.94619L96.5618 8.33802C96.4971 8.51246 96.383 8.66428 96.2334 8.77492C96.0839 8.88557 95.9053 8.95024 95.7196 8.96105L88.9124 9.39948C88.024 9.45717 87.6778 10.5994 88.3586 11.1647L93.5736 15.5144C93.7193 15.6349 93.8281 15.7942 93.8873 15.9738C93.9465 16.1534 93.9537 16.3461 93.9081 16.5297L92.3506 22.6677C92.0852 23.7061 93.1928 24.5483 94.0812 23.983L99.4923 20.5563C99.6441 20.4598 99.8202 20.4086 100 20.4086C100.18 20.4086 100.356 20.4598 100.508 20.5563Z" fill="#F8D57E" stroke="#F8D57E" stroke-width="2" stroke-linecap="round" stroke-linejoin="round"/>
<path d="M129.508 20.5563L135.323 24.2484C136.073 24.7214 136.996 24.0176 136.776 23.1523L135.092 16.5297C135.046 16.3461 135.054 16.1534 135.113 15.9738C135.172 15.7942 135.281 15.6349 135.426 15.5144L140.641 11.1647C141.322 10.5994 140.976 9.45717 140.088 9.39948L133.28 8.96105C133.095 8.95024 132.916 8.88557 132.767 8.77492C132.617 8.66428 132.503 8.51246 132.438 8.33802L129.9 1.94619C129.833 1.76147 129.71 1.60191 129.549 1.48916C129.388 1.3764 129.197 1.31592 129 1.31592C128.803 1.31592 128.612 1.3764 128.451 1.48916C128.29 1.60191 128.167 1.76147 128.1 1.94619L125.562 8.33802C125.497 8.51246 125.383 8.66428 125.233 8.77492C125.084 8.88557 124.905 8.95024 124.72 8.96105L117.912 9.39948C117.024 9.45717 116.678 10.5994 117.359 11.1647L122.574 15.5144C122.719 15.6349 122.828 15.7942 122.887 15.9738C122.946 16.1534 122.954 16.3461 122.908 16.5297L121.351 22.6677C121.085 23.7061 122.193 24.5483 123.081 23.983L128.492 20.5563C128.644 20.4598 128.82 20.4086 129 20.4086C129.18 20.4086 129.356 20.4598 129.508 20.5563V20.5563Z" stroke="#F8D57E" stroke-width="2" stroke-linecap="round" stroke-linejoin="round"/>
</svg>
